<svg xmlns="http://www.w3.org/2000/svg" xml:space="preserve" id="Layer_1" x="0" y="0" style="enable-background:new 0 0 200 200" version="1.1" viewBox="0 0 200 200"><style>.st2{fill:#fff;stroke:#686868;stroke-miterlimit:10}</style><path d="M89.9 3.6c-37 4.1-68.4 28.8-80.8 63.8s-3.6 74.1 22.6 100.3 65.3 35 100.3 22.6 59.7-43.7 63.8-80.8C160.9 74.1 125.4 39.1 89.9 3.6z" style="fill:#686868"/><path d="M100.2 3.1c-3.6 0-6.7 0-10.3.5l106 106c.5-3.6.5-6.7.5-10.3V3.1h-96.2zm73 42.7c-4.6 7.2-14.9 8.2-21.1 2.1-4.6-4.6-5.1-11.8-1.5-17.5 4.6-7.2 14.9-8.2 21.1-2.1 4.1 4.6 5.1 11.8 1.5 17.5z" style="fill:#3463ac"/><path d="M67.2 48.7c-29.6 12.1-43.8 45.9-31.7 75.5 12.1 29.6 85.8 57 85.8 57s33.5-71.2 21.4-100.8c-12.1-29.5-45.9-43.7-75.5-31.7zm34 82.5c-16 6.5-34.3-1.2-40.8-17.2s1.2-34.3 17.2-40.8 34.3 1.2 40.8 17.2-1.2 34.3-17.2 40.8z" class="st2"/><path d="M70.8 88.1h10.7v27.3H70.8zM84.1 100h10.7v15.3H84.1zM97.5 91.5h10.7v23.8H97.5z" class="st2"/></svg>